# xmcd CD database file
#
# Track frame offsets:
#	150
#	21540
#	42705
#	63872
#
# Disc length: 1213 seconds
#
# Revision: 1
# Processed by: cddbd v1.5PL3 Copyright (c) Steve Scherf et al.
# Submitted via: CDex 1.50beta8
#
DISCID=3504bb04
DTITLE=東京スカパラダイスオーケストラ - World Famous Remix
DYEAR=1991
DGENRE=Ska
TTITLE0=HALL-IN-ONE (De-Tune Mix)
TTITLE1=SESAME STREET (Big Trouble Mix)
TTITLE2=GODZEE BONGO (Light-Heavy-Weight Mix)
TTITLE3=GODZEE BONGO (Arabella Rodriguez Mix)
EXTD=YEAR: 1991
EXTT0=
EXTT1=
EXTT2=
EXTT3=
PLAYORDER=
